<?xml version="1.0" encoding="UTF-8" standalone="no"?>
<svg width="120px" height="108px" viewBox="0 0 120 108" version="1.1" xmlns="http://www.w3.org/2000/svg" xmlns:xlink="http://www.w3.org/1999/xlink">
    <title>纬曜智能</title>
    <defs>
        <linearGradient id="gradient1" x1="0%" y1="0%" x2="100%" y2="100%">
            <stop offset="0%" style="stop-color:#4A90E2;stop-opacity:1" />
            <stop offset="100%" style="stop-color:#6A5ACD;stop-opacity:1" />
        </linearGradient>
        <linearGradient id="gradient2" x1="0%" y1="0%" x2="100%" y2="100%">
            <stop offset="0%" style="stop-color:#6A5ACD;stop-opacity:1" />
            <stop offset="100%" style="stop-color:#4A90E2;stop-opacity:1" />
        </linearGradient>
    </defs>
    <g id="Page-1" stroke="none" stroke-width="1" fill="none" fill-rule="evenodd">
        <!-- 外环 -->
        <path d="M60,12 C87.6,12 110,34.4 110,62 C110,89.6 87.6,112 60,112 C32.4,112 10,89.6 10,62 C10,34.4 32.4,12 60,12 Z" 
              id="outer-ring" stroke="url(#gradient1)" stroke-width="2" opacity="0.8"/>
        
        <!-- 内环 -->
        <path d="M60,24 C81,24 98,41 98,62 C98,83 81,100 60,100 C39,100 22,83 22,62 C22,41 39,24 60,24 Z" 
              id="inner-ring" stroke="url(#gradient2)" stroke-width="2" opacity="0.9"/>
        
        <!-- 中心六边形 -->
        <polygon id="hexagon" 
                 points="60,32 78,42 78,62 60,72 42,62 42,42" 
                 fill="url(#gradient1)" opacity="0.7"/>
        
        <!-- 连接线 -->
        <line x1="60" y1="12" x2="60" y2="32" stroke="#4A90E2" stroke-width="1.5" opacity="0.6"/>
        <line x1="110" y1="62" x2="78" y2="62" stroke="#4A90E2" stroke-width="1.5" opacity="0.6"/>
        <line x1="10" y1="62" x2="42" y2="62" stroke="#4A90E2" stroke-width="1.5" opacity="0.6"/>
        
        <!-- 数据点 -->
        <circle cx="60" cy="12" r="3" fill="#4A90E2"/>
        <circle cx="110" cy="62" r="3" fill="#6A5ACD"/>
        <circle cx="10" cy="62" r="3" fill="#6A5ACD"/>
        <circle cx="60" cy="62" r="4" fill="#FFFFFF"/>
        
        <!-- 脉冲效果 -->
        <circle cx="60" cy="62" r="8" fill="none" stroke="#FFFFFF" stroke-width="1" opacity="0.5">
            <animate attributeName="r" from="8" to="16" dur="2s" repeatCount="indefinite"/>
            <animate attributeName="opacity" from="0.5" to="0" dur="2s" repeatCount="indefinite"/>
        </circle>
        
        <!-- 连接线 -->
        <line x1="42" y1="42" x2="24" y2="24" stroke="#4A90E2" stroke-width="1" opacity="0.4"/>
        <line x1="78" y1="42" x2="96" y2="24" stroke="#4A90E2" stroke-width="1" opacity="0.4"/>
        <line x1="42" y1="62" x2="24" y2="80" stroke="#4A90E2" stroke-width="1" opacity="0.4"/>
        <line x1="78" y1="62" x2="96" y2="80" stroke="#4A90E2" stroke-width="1" opacity="0.4"/>
        
        <!-- 数据点 -->
        <circle cx="24" cy="24" r="2" fill="#4A90E2"/>
        <circle cx="96" cy="24" r="2" fill="#4A90E2"/>
        <circle cx="24" cy="80" r="2" fill="#4A90E2"/>
        <circle cx="96" cy="80" r="2" fill="#4A90E2"/>
    </g>
</svg>